G04 #@! TF.GenerationSoftware,KiCad,Pcbnew,5.0.0*
G04 #@! TF.CreationDate,2019-01-10T22:51:14-06:00*
G04 #@! TF.ProjectId,stlink-swd,73746C696E6B2D7377642E6B69636164,rev?*
G04 #@! TF.SameCoordinates,Original*
G04 #@! TF.FileFunction,Copper,L2,Bot,Signal*
G04 #@! TF.FilePolarity,Positive*
%FSLAX46Y46*%
G04 Gerber Fmt 4.6, Leading zero omitted, Abs format (unit mm)*
G04 Created by KiCad (PCBNEW 5.0.0) date Thu Jan 10 22:51:14 2019*
%MOMM*%
%LPD*%
G01*
G04 APERTURE LIST*
G04 #@! TA.AperFunction,ViaPad*
%ADD10C,0.762000*%
G04 #@! TD*
G04 #@! TA.AperFunction,ComponentPad*
%ADD11O,1.700000X1.700000*%
G04 #@! TD*
G04 #@! TA.AperFunction,ComponentPad*
%ADD12R,1.700000X1.700000*%
G04 #@! TD*
G04 #@! TA.AperFunction,ComponentPad*
%ADD13C,2.000000*%
G04 #@! TD*
G04 #@! TA.AperFunction,Conductor*
%ADD14C,0.254000*%
G04 #@! TD*
G04 #@! TA.AperFunction,Conductor*
%ADD15C,0.152400*%
G04 #@! TD*
G04 APERTURE END LIST*
D10*
G04 #@! TO.N,GND*
G04 #@! TO.C,REF\002A\002A*
X158877000Y-103632000D03*
G04 #@! TD*
G04 #@! TO.N,GND*
G04 #@! TO.C,REF\002A\002A*
X158750000Y-92964000D03*
G04 #@! TD*
G04 #@! TO.N,GND*
G04 #@! TO.C,REF\002A\002A*
X138176000Y-100076000D03*
G04 #@! TD*
G04 #@! TO.N,GND*
G04 #@! TO.C,REF\002A\002A*
X154432000Y-95504000D03*
G04 #@! TD*
G04 #@! TO.N,GND*
G04 #@! TO.C,REF\002A\002A*
X134620000Y-93726000D03*
G04 #@! TD*
G04 #@! TO.N,GND*
G04 #@! TO.C,REF\002A\002A*
X148590000Y-93472000D03*
G04 #@! TD*
G04 #@! TO.N,GND*
G04 #@! TO.C,REF\002A\002A*
X142240000Y-93726000D03*
G04 #@! TD*
G04 #@! TO.N,GND*
G04 #@! TO.C,REF\002A\002A*
X148590000Y-96266000D03*
G04 #@! TD*
G04 #@! TO.N,GND*
G04 #@! TO.C,REF\002A\002A*
X157226000Y-100330000D03*
G04 #@! TD*
D11*
G04 #@! TO.P,J1,6*
G04 #@! TO.N,/SWCLK_JST*
X139700000Y-97790000D03*
G04 #@! TO.P,J1,5*
G04 #@! TO.N,/SWCLK*
X137160000Y-97790000D03*
G04 #@! TO.P,J1,4*
G04 #@! TO.N,/NRST_JST*
X139700000Y-95250000D03*
G04 #@! TO.P,J1,3*
G04 #@! TO.N,/NRST*
X137160000Y-95250000D03*
G04 #@! TO.P,J1,2*
G04 #@! TO.N,/SWDIO_JST*
X139700000Y-92710000D03*
D12*
G04 #@! TO.P,J1,1*
G04 #@! TO.N,/SWDIO*
X137160000Y-92710000D03*
G04 #@! TD*
D11*
G04 #@! TO.P,J2,10*
G04 #@! TO.N,Net-(J2-Pad10)*
X131365001Y-102870000D03*
G04 #@! TO.P,J2,9*
G04 #@! TO.N,Net-(J2-Pad9)*
X128825001Y-102870000D03*
G04 #@! TO.P,J2,8*
G04 #@! TO.N,+3V3*
X131365001Y-100330000D03*
G04 #@! TO.P,J2,7*
X128825001Y-100330000D03*
G04 #@! TO.P,J2,6*
G04 #@! TO.N,/SWCLK*
X131365001Y-97790000D03*
G04 #@! TO.P,J2,5*
G04 #@! TO.N,Net-(J2-Pad5)*
X128825001Y-97790000D03*
G04 #@! TO.P,J2,4*
G04 #@! TO.N,GND*
X131365001Y-95250000D03*
G04 #@! TO.P,J2,3*
X128825001Y-95250000D03*
G04 #@! TO.P,J2,2*
G04 #@! TO.N,/SWDIO*
X131365001Y-92710000D03*
D12*
G04 #@! TO.P,J2,1*
G04 #@! TO.N,/NRST*
X128825001Y-92710000D03*
G04 #@! TD*
D11*
G04 #@! TO.P,J4,2*
G04 #@! TO.N,GND*
X139700000Y-102870000D03*
D12*
G04 #@! TO.P,J4,1*
G04 #@! TO.N,+3V3*
X137160000Y-102870000D03*
G04 #@! TD*
D13*
G04 #@! TO.P,SW1,1*
G04 #@! TO.N,/NRST_JST*
X146130000Y-94488000D03*
G04 #@! TO.P,SW1,2*
G04 #@! TO.N,GND*
X146130000Y-99488000D03*
X151130000Y-99488000D03*
G04 #@! TO.P,SW1,1*
G04 #@! TO.N,/NRST_JST*
X151130000Y-94488000D03*
G04 #@! TD*
D10*
G04 #@! TO.N,GND*
G04 #@! TO.C,REF\002A\002A*
X155702000Y-99314000D03*
G04 #@! TD*
G04 #@! TO.N,GND*
G04 #@! TO.C,REF\002A\002A*
X148590000Y-104140000D03*
G04 #@! TD*
G04 #@! TO.N,/NRST_JST*
X154178000Y-98298000D03*
G04 #@! TD*
D14*
G04 #@! TO.N,/NRST_JST*
X151130000Y-95250000D02*
X151130000Y-94488000D01*
X154178000Y-98298000D02*
X151130000Y-95250000D01*
G04 #@! TD*
D15*
G04 #@! TO.N,GND*
G36*
X162002801Y-104852800D02*
X127557200Y-104852800D01*
X127557200Y-103196817D01*
X127593646Y-103380044D01*
X127882563Y-103812438D01*
X128314957Y-104101355D01*
X128696256Y-104177200D01*
X128953746Y-104177200D01*
X129335045Y-104101355D01*
X129767439Y-103812438D01*
X130056356Y-103380044D01*
X130095001Y-103185762D01*
X130133646Y-103380044D01*
X130422563Y-103812438D01*
X130854957Y-104101355D01*
X131236256Y-104177200D01*
X131493746Y-104177200D01*
X131875045Y-104101355D01*
X132307439Y-103812438D01*
X132596356Y-103380044D01*
X132697810Y-102870000D01*
X132596356Y-102359956D01*
X132369205Y-102020000D01*
X135843843Y-102020000D01*
X135843843Y-103720000D01*
X135879327Y-103898391D01*
X135980377Y-104049623D01*
X136131609Y-104150673D01*
X136310000Y-104186157D01*
X138010000Y-104186157D01*
X138188391Y-104150673D01*
X138339623Y-104049623D01*
X138440673Y-103898391D01*
X138476157Y-103720000D01*
X138476157Y-103349413D01*
X138621527Y-103349413D01*
X138887084Y-103725634D01*
X139220592Y-103948443D01*
X139395200Y-103924482D01*
X139395200Y-103174800D01*
X140004800Y-103174800D01*
X140004800Y-103924482D01*
X140179408Y-103948443D01*
X140512916Y-103725634D01*
X140778473Y-103349413D01*
X140757642Y-103174800D01*
X140004800Y-103174800D01*
X139395200Y-103174800D01*
X138642358Y-103174800D01*
X138621527Y-103349413D01*
X138476157Y-103349413D01*
X138476157Y-102390587D01*
X138621527Y-102390587D01*
X138642358Y-102565200D01*
X139395200Y-102565200D01*
X139395200Y-101815518D01*
X140004800Y-101815518D01*
X140004800Y-102565200D01*
X140757642Y-102565200D01*
X140778473Y-102390587D01*
X140512916Y-102014366D01*
X140179408Y-101791557D01*
X140004800Y-101815518D01*
X139395200Y-101815518D01*
X139220592Y-101791557D01*
X138887084Y-102014366D01*
X138621527Y-102390587D01*
X138476157Y-102390587D01*
X138476157Y-102020000D01*
X138440673Y-101841609D01*
X138339623Y-101690377D01*
X138188391Y-101589327D01*
X138010000Y-101553843D01*
X136310000Y-101553843D01*
X136131609Y-101589327D01*
X135980377Y-101690377D01*
X135879327Y-101841609D01*
X135843843Y-102020000D01*
X132369205Y-102020000D01*
X132307439Y-101927562D01*
X131875045Y-101638645D01*
X131680763Y-101600000D01*
X131875045Y-101561355D01*
X132307439Y-101272438D01*
X132596356Y-100840044D01*
X132648478Y-100578007D01*
X145471045Y-100578007D01*
X145599791Y-100736327D01*
X146117865Y-100844206D01*
X146637786Y-100745615D01*
X146660209Y-100736327D01*
X146788955Y-100578007D01*
X150471045Y-100578007D01*
X150599791Y-100736327D01*
X151117865Y-100844206D01*
X151637786Y-100745615D01*
X151660209Y-100736327D01*
X151788955Y-100578007D01*
X151130000Y-99919052D01*
X150471045Y-100578007D01*
X146788955Y-100578007D01*
X146130000Y-99919052D01*
X145471045Y-100578007D01*
X132648478Y-100578007D01*
X132697810Y-100330000D01*
X132596356Y-99819956D01*
X132366442Y-99475865D01*
X144773794Y-99475865D01*
X144872385Y-99995786D01*
X144881673Y-100018209D01*
X145039993Y-100146955D01*
X145698948Y-99488000D01*
X146561052Y-99488000D01*
X147220007Y-100146955D01*
X147378327Y-100018209D01*
X147486206Y-99500135D01*
X147481604Y-99475865D01*
X149773794Y-99475865D01*
X149872385Y-99995786D01*
X149881673Y-100018209D01*
X150039993Y-100146955D01*
X150698948Y-99488000D01*
X151561052Y-99488000D01*
X152220007Y-100146955D01*
X152378327Y-100018209D01*
X152486206Y-99500135D01*
X152387615Y-98980214D01*
X152378327Y-98957791D01*
X152220007Y-98829045D01*
X151561052Y-99488000D01*
X150698948Y-99488000D01*
X150039993Y-98829045D01*
X149881673Y-98957791D01*
X149773794Y-99475865D01*
X147481604Y-99475865D01*
X147387615Y-98980214D01*
X147378327Y-98957791D01*
X147220007Y-98829045D01*
X146561052Y-99488000D01*
X145698948Y-99488000D01*
X145039993Y-98829045D01*
X144881673Y-98957791D01*
X144773794Y-99475865D01*
X132366442Y-99475865D01*
X132307439Y-99387562D01*
X131875045Y-99098645D01*
X131680763Y-99060000D01*
X131875045Y-99021355D01*
X132307439Y-98732438D01*
X132596356Y-98300044D01*
X132697810Y-97790000D01*
X132596356Y-97279956D01*
X132307439Y-96847562D01*
X131875045Y-96558645D01*
X131493746Y-96482800D01*
X131236256Y-96482800D01*
X130854957Y-96558645D01*
X130422563Y-96847562D01*
X130133646Y-97279956D01*
X130095001Y-97474238D01*
X130056356Y-97279956D01*
X129767439Y-96847562D01*
X129335045Y-96558645D01*
X128953746Y-96482800D01*
X128696256Y-96482800D01*
X128314957Y-96558645D01*
X127882563Y-96847562D01*
X127593646Y-97279956D01*
X127557200Y-97463183D01*
X127557200Y-95729408D01*
X127746558Y-95729408D01*
X127969367Y-96062916D01*
X128345588Y-96328473D01*
X128520201Y-96307642D01*
X128520201Y-95554800D01*
X129129801Y-95554800D01*
X129129801Y-96307642D01*
X129304414Y-96328473D01*
X129680635Y-96062916D01*
X129903444Y-95729408D01*
X130286558Y-95729408D01*
X130509367Y-96062916D01*
X130885588Y-96328473D01*
X131060201Y-96307642D01*
X131060201Y-95554800D01*
X131669801Y-95554800D01*
X131669801Y-96307642D01*
X131844414Y-96328473D01*
X132220635Y-96062916D01*
X132443444Y-95729408D01*
X132419483Y-95554800D01*
X131669801Y-95554800D01*
X131060201Y-95554800D01*
X130310519Y-95554800D01*
X130286558Y-95729408D01*
X129903444Y-95729408D01*
X129879483Y-95554800D01*
X129129801Y-95554800D01*
X128520201Y-95554800D01*
X127770519Y-95554800D01*
X127746558Y-95729408D01*
X127557200Y-95729408D01*
X127557200Y-95250000D01*
X135827191Y-95250000D01*
X135928645Y-95760044D01*
X136217562Y-96192438D01*
X136649956Y-96481355D01*
X136844238Y-96520000D01*
X136649956Y-96558645D01*
X136217562Y-96847562D01*
X135928645Y-97279956D01*
X135827191Y-97790000D01*
X135928645Y-98300044D01*
X136217562Y-98732438D01*
X136649956Y-99021355D01*
X137031255Y-99097200D01*
X137288745Y-99097200D01*
X137670044Y-99021355D01*
X138102438Y-98732438D01*
X138391355Y-98300044D01*
X138430000Y-98105762D01*
X138468645Y-98300044D01*
X138757562Y-98732438D01*
X139189956Y-99021355D01*
X139571255Y-99097200D01*
X139828745Y-99097200D01*
X140210044Y-99021355D01*
X140642438Y-98732438D01*
X140865907Y-98397993D01*
X145471045Y-98397993D01*
X146130000Y-99056948D01*
X146788955Y-98397993D01*
X150471045Y-98397993D01*
X151130000Y-99056948D01*
X151788955Y-98397993D01*
X151660209Y-98239673D01*
X151142135Y-98131794D01*
X150622214Y-98230385D01*
X150599791Y-98239673D01*
X150471045Y-98397993D01*
X146788955Y-98397993D01*
X146660209Y-98239673D01*
X146142135Y-98131794D01*
X145622214Y-98230385D01*
X145599791Y-98239673D01*
X145471045Y-98397993D01*
X140865907Y-98397993D01*
X140931355Y-98300044D01*
X141032809Y-97790000D01*
X140931355Y-97279956D01*
X140642438Y-96847562D01*
X140210044Y-96558645D01*
X140015762Y-96520000D01*
X140210044Y-96481355D01*
X140642438Y-96192438D01*
X140931355Y-95760044D01*
X141032809Y-95250000D01*
X140931355Y-94739956D01*
X140642438Y-94307562D01*
X140478685Y-94198145D01*
X144672800Y-94198145D01*
X144672800Y-94777855D01*
X144894646Y-95313437D01*
X145304563Y-95723354D01*
X145840145Y-95945200D01*
X146419855Y-95945200D01*
X146955437Y-95723354D01*
X147365354Y-95313437D01*
X147587200Y-94777855D01*
X147587200Y-94198145D01*
X149672800Y-94198145D01*
X149672800Y-94777855D01*
X149894646Y-95313437D01*
X150304563Y-95723354D01*
X150840145Y-95945200D01*
X150999018Y-95945200D01*
X153339800Y-98285983D01*
X153339800Y-98464728D01*
X153467409Y-98772802D01*
X153703198Y-99008591D01*
X154011272Y-99136200D01*
X154344728Y-99136200D01*
X154652802Y-99008591D01*
X154888591Y-98772802D01*
X155016200Y-98464728D01*
X155016200Y-98131272D01*
X154888591Y-97823198D01*
X154652802Y-97587409D01*
X154344728Y-97459800D01*
X154165983Y-97459800D01*
X152192487Y-95486304D01*
X152365354Y-95313437D01*
X152587200Y-94777855D01*
X152587200Y-94198145D01*
X152365354Y-93662563D01*
X151955437Y-93252646D01*
X151419855Y-93030800D01*
X150840145Y-93030800D01*
X150304563Y-93252646D01*
X149894646Y-93662563D01*
X149672800Y-94198145D01*
X147587200Y-94198145D01*
X147365354Y-93662563D01*
X146955437Y-93252646D01*
X146419855Y-93030800D01*
X145840145Y-93030800D01*
X145304563Y-93252646D01*
X144894646Y-93662563D01*
X144672800Y-94198145D01*
X140478685Y-94198145D01*
X140210044Y-94018645D01*
X140015762Y-93980000D01*
X140210044Y-93941355D01*
X140642438Y-93652438D01*
X140931355Y-93220044D01*
X141032809Y-92710000D01*
X140931355Y-92199956D01*
X140642438Y-91767562D01*
X140210044Y-91478645D01*
X139828745Y-91402800D01*
X139571255Y-91402800D01*
X139189956Y-91478645D01*
X138757562Y-91767562D01*
X138476157Y-92188714D01*
X138476157Y-91860000D01*
X138440673Y-91681609D01*
X138339623Y-91530377D01*
X138188391Y-91429327D01*
X138010000Y-91393843D01*
X136310000Y-91393843D01*
X136131609Y-91429327D01*
X135980377Y-91530377D01*
X135879327Y-91681609D01*
X135843843Y-91860000D01*
X135843843Y-93560000D01*
X135879327Y-93738391D01*
X135980377Y-93889623D01*
X136131609Y-93990673D01*
X136310000Y-94026157D01*
X136638714Y-94026157D01*
X136217562Y-94307562D01*
X135928645Y-94739956D01*
X135827191Y-95250000D01*
X127557200Y-95250000D01*
X127557200Y-94770592D01*
X127746558Y-94770592D01*
X127770519Y-94945200D01*
X128520201Y-94945200D01*
X128520201Y-94192358D01*
X129129801Y-94192358D01*
X129129801Y-94945200D01*
X129879483Y-94945200D01*
X129903444Y-94770592D01*
X130286558Y-94770592D01*
X130310519Y-94945200D01*
X131060201Y-94945200D01*
X131060201Y-94192358D01*
X131669801Y-94192358D01*
X131669801Y-94945200D01*
X132419483Y-94945200D01*
X132443444Y-94770592D01*
X132220635Y-94437084D01*
X131844414Y-94171527D01*
X131669801Y-94192358D01*
X131060201Y-94192358D01*
X130885588Y-94171527D01*
X130509367Y-94437084D01*
X130286558Y-94770592D01*
X129903444Y-94770592D01*
X129680635Y-94437084D01*
X129304414Y-94171527D01*
X129129801Y-94192358D01*
X128520201Y-94192358D01*
X128345588Y-94171527D01*
X127969367Y-94437084D01*
X127746558Y-94770592D01*
X127557200Y-94770592D01*
X127557200Y-93757655D01*
X127645378Y-93889623D01*
X127796610Y-93990673D01*
X127975001Y-94026157D01*
X129675001Y-94026157D01*
X129853392Y-93990673D01*
X130004624Y-93889623D01*
X130105674Y-93738391D01*
X130141158Y-93560000D01*
X130141158Y-93231286D01*
X130422563Y-93652438D01*
X130854957Y-93941355D01*
X131236256Y-94017200D01*
X131493746Y-94017200D01*
X131875045Y-93941355D01*
X132307439Y-93652438D01*
X132596356Y-93220044D01*
X132697810Y-92710000D01*
X132596356Y-92199956D01*
X132307439Y-91767562D01*
X131875045Y-91478645D01*
X131493746Y-91402800D01*
X131236256Y-91402800D01*
X130854957Y-91478645D01*
X130422563Y-91767562D01*
X130141158Y-92188714D01*
X130141158Y-91860000D01*
X130105674Y-91681609D01*
X130004624Y-91530377D01*
X129853392Y-91429327D01*
X129675001Y-91393843D01*
X127975001Y-91393843D01*
X127796610Y-91429327D01*
X127645378Y-91530377D01*
X127557200Y-91662345D01*
X127557200Y-90727200D01*
X162002800Y-90727200D01*
X162002801Y-104852800D01*
X162002801Y-104852800D01*
G37*
X162002801Y-104852800D02*
X127557200Y-104852800D01*
X127557200Y-103196817D01*
X127593646Y-103380044D01*
X127882563Y-103812438D01*
X128314957Y-104101355D01*
X128696256Y-104177200D01*
X128953746Y-104177200D01*
X129335045Y-104101355D01*
X129767439Y-103812438D01*
X130056356Y-103380044D01*
X130095001Y-103185762D01*
X130133646Y-103380044D01*
X130422563Y-103812438D01*
X130854957Y-104101355D01*
X131236256Y-104177200D01*
X131493746Y-104177200D01*
X131875045Y-104101355D01*
X132307439Y-103812438D01*
X132596356Y-103380044D01*
X132697810Y-102870000D01*
X132596356Y-102359956D01*
X132369205Y-102020000D01*
X135843843Y-102020000D01*
X135843843Y-103720000D01*
X135879327Y-103898391D01*
X135980377Y-104049623D01*
X136131609Y-104150673D01*
X136310000Y-104186157D01*
X138010000Y-104186157D01*
X138188391Y-104150673D01*
X138339623Y-104049623D01*
X138440673Y-103898391D01*
X138476157Y-103720000D01*
X138476157Y-103349413D01*
X138621527Y-103349413D01*
X138887084Y-103725634D01*
X139220592Y-103948443D01*
X139395200Y-103924482D01*
X139395200Y-103174800D01*
X140004800Y-103174800D01*
X140004800Y-103924482D01*
X140179408Y-103948443D01*
X140512916Y-103725634D01*
X140778473Y-103349413D01*
X140757642Y-103174800D01*
X140004800Y-103174800D01*
X139395200Y-103174800D01*
X138642358Y-103174800D01*
X138621527Y-103349413D01*
X138476157Y-103349413D01*
X138476157Y-102390587D01*
X138621527Y-102390587D01*
X138642358Y-102565200D01*
X139395200Y-102565200D01*
X139395200Y-101815518D01*
X140004800Y-101815518D01*
X140004800Y-102565200D01*
X140757642Y-102565200D01*
X140778473Y-102390587D01*
X140512916Y-102014366D01*
X140179408Y-101791557D01*
X140004800Y-101815518D01*
X139395200Y-101815518D01*
X139220592Y-101791557D01*
X138887084Y-102014366D01*
X138621527Y-102390587D01*
X138476157Y-102390587D01*
X138476157Y-102020000D01*
X138440673Y-101841609D01*
X138339623Y-101690377D01*
X138188391Y-101589327D01*
X138010000Y-101553843D01*
X136310000Y-101553843D01*
X136131609Y-101589327D01*
X135980377Y-101690377D01*
X135879327Y-101841609D01*
X135843843Y-102020000D01*
X132369205Y-102020000D01*
X132307439Y-101927562D01*
X131875045Y-101638645D01*
X131680763Y-101600000D01*
X131875045Y-101561355D01*
X132307439Y-101272438D01*
X132596356Y-100840044D01*
X132648478Y-100578007D01*
X145471045Y-100578007D01*
X145599791Y-100736327D01*
X146117865Y-100844206D01*
X146637786Y-100745615D01*
X146660209Y-100736327D01*
X146788955Y-100578007D01*
X150471045Y-100578007D01*
X150599791Y-100736327D01*
X151117865Y-100844206D01*
X151637786Y-100745615D01*
X151660209Y-100736327D01*
X151788955Y-100578007D01*
X151130000Y-99919052D01*
X150471045Y-100578007D01*
X146788955Y-100578007D01*
X146130000Y-99919052D01*
X145471045Y-100578007D01*
X132648478Y-100578007D01*
X132697810Y-100330000D01*
X132596356Y-99819956D01*
X132366442Y-99475865D01*
X144773794Y-99475865D01*
X144872385Y-99995786D01*
X144881673Y-100018209D01*
X145039993Y-100146955D01*
X145698948Y-99488000D01*
X146561052Y-99488000D01*
X147220007Y-100146955D01*
X147378327Y-100018209D01*
X147486206Y-99500135D01*
X147481604Y-99475865D01*
X149773794Y-99475865D01*
X149872385Y-99995786D01*
X149881673Y-100018209D01*
X150039993Y-100146955D01*
X150698948Y-99488000D01*
X151561052Y-99488000D01*
X152220007Y-100146955D01*
X152378327Y-100018209D01*
X152486206Y-99500135D01*
X152387615Y-98980214D01*
X152378327Y-98957791D01*
X152220007Y-98829045D01*
X151561052Y-99488000D01*
X150698948Y-99488000D01*
X150039993Y-98829045D01*
X149881673Y-98957791D01*
X149773794Y-99475865D01*
X147481604Y-99475865D01*
X147387615Y-98980214D01*
X147378327Y-98957791D01*
X147220007Y-98829045D01*
X146561052Y-99488000D01*
X145698948Y-99488000D01*
X145039993Y-98829045D01*
X144881673Y-98957791D01*
X144773794Y-99475865D01*
X132366442Y-99475865D01*
X132307439Y-99387562D01*
X131875045Y-99098645D01*
X131680763Y-99060000D01*
X131875045Y-99021355D01*
X132307439Y-98732438D01*
X132596356Y-98300044D01*
X132697810Y-97790000D01*
X132596356Y-97279956D01*
X132307439Y-96847562D01*
X131875045Y-96558645D01*
X131493746Y-96482800D01*
X131236256Y-96482800D01*
X130854957Y-96558645D01*
X130422563Y-96847562D01*
X130133646Y-97279956D01*
X130095001Y-97474238D01*
X130056356Y-97279956D01*
X129767439Y-96847562D01*
X129335045Y-96558645D01*
X128953746Y-96482800D01*
X128696256Y-96482800D01*
X128314957Y-96558645D01*
X127882563Y-96847562D01*
X127593646Y-97279956D01*
X127557200Y-97463183D01*
X127557200Y-95729408D01*
X127746558Y-95729408D01*
X127969367Y-96062916D01*
X128345588Y-96328473D01*
X128520201Y-96307642D01*
X128520201Y-95554800D01*
X129129801Y-95554800D01*
X129129801Y-96307642D01*
X129304414Y-96328473D01*
X129680635Y-96062916D01*
X129903444Y-95729408D01*
X130286558Y-95729408D01*
X130509367Y-96062916D01*
X130885588Y-96328473D01*
X131060201Y-96307642D01*
X131060201Y-95554800D01*
X131669801Y-95554800D01*
X131669801Y-96307642D01*
X131844414Y-96328473D01*
X132220635Y-96062916D01*
X132443444Y-95729408D01*
X132419483Y-95554800D01*
X131669801Y-95554800D01*
X131060201Y-95554800D01*
X130310519Y-95554800D01*
X130286558Y-95729408D01*
X129903444Y-95729408D01*
X129879483Y-95554800D01*
X129129801Y-95554800D01*
X128520201Y-95554800D01*
X127770519Y-95554800D01*
X127746558Y-95729408D01*
X127557200Y-95729408D01*
X127557200Y-95250000D01*
X135827191Y-95250000D01*
X135928645Y-95760044D01*
X136217562Y-96192438D01*
X136649956Y-96481355D01*
X136844238Y-96520000D01*
X136649956Y-96558645D01*
X136217562Y-96847562D01*
X135928645Y-97279956D01*
X135827191Y-97790000D01*
X135928645Y-98300044D01*
X136217562Y-98732438D01*
X136649956Y-99021355D01*
X137031255Y-99097200D01*
X137288745Y-99097200D01*
X137670044Y-99021355D01*
X138102438Y-98732438D01*
X138391355Y-98300044D01*
X138430000Y-98105762D01*
X138468645Y-98300044D01*
X138757562Y-98732438D01*
X139189956Y-99021355D01*
X139571255Y-99097200D01*
X139828745Y-99097200D01*
X140210044Y-99021355D01*
X140642438Y-98732438D01*
X140865907Y-98397993D01*
X145471045Y-98397993D01*
X146130000Y-99056948D01*
X146788955Y-98397993D01*
X150471045Y-98397993D01*
X151130000Y-99056948D01*
X151788955Y-98397993D01*
X151660209Y-98239673D01*
X151142135Y-98131794D01*
X150622214Y-98230385D01*
X150599791Y-98239673D01*
X150471045Y-98397993D01*
X146788955Y-98397993D01*
X146660209Y-98239673D01*
X146142135Y-98131794D01*
X145622214Y-98230385D01*
X145599791Y-98239673D01*
X145471045Y-98397993D01*
X140865907Y-98397993D01*
X140931355Y-98300044D01*
X141032809Y-97790000D01*
X140931355Y-97279956D01*
X140642438Y-96847562D01*
X140210044Y-96558645D01*
X140015762Y-96520000D01*
X140210044Y-96481355D01*
X140642438Y-96192438D01*
X140931355Y-95760044D01*
X141032809Y-95250000D01*
X140931355Y-94739956D01*
X140642438Y-94307562D01*
X140478685Y-94198145D01*
X144672800Y-94198145D01*
X144672800Y-94777855D01*
X144894646Y-95313437D01*
X145304563Y-95723354D01*
X145840145Y-95945200D01*
X146419855Y-95945200D01*
X146955437Y-95723354D01*
X147365354Y-95313437D01*
X147587200Y-94777855D01*
X147587200Y-94198145D01*
X149672800Y-94198145D01*
X149672800Y-94777855D01*
X149894646Y-95313437D01*
X150304563Y-95723354D01*
X150840145Y-95945200D01*
X150999018Y-95945200D01*
X153339800Y-98285983D01*
X153339800Y-98464728D01*
X153467409Y-98772802D01*
X153703198Y-99008591D01*
X154011272Y-99136200D01*
X154344728Y-99136200D01*
X154652802Y-99008591D01*
X154888591Y-98772802D01*
X155016200Y-98464728D01*
X155016200Y-98131272D01*
X154888591Y-97823198D01*
X154652802Y-97587409D01*
X154344728Y-97459800D01*
X154165983Y-97459800D01*
X152192487Y-95486304D01*
X152365354Y-95313437D01*
X152587200Y-94777855D01*
X152587200Y-94198145D01*
X152365354Y-93662563D01*
X151955437Y-93252646D01*
X151419855Y-93030800D01*
X150840145Y-93030800D01*
X150304563Y-93252646D01*
X149894646Y-93662563D01*
X149672800Y-94198145D01*
X147587200Y-94198145D01*
X147365354Y-93662563D01*
X146955437Y-93252646D01*
X146419855Y-93030800D01*
X145840145Y-93030800D01*
X145304563Y-93252646D01*
X144894646Y-93662563D01*
X144672800Y-94198145D01*
X140478685Y-94198145D01*
X140210044Y-94018645D01*
X140015762Y-93980000D01*
X140210044Y-93941355D01*
X140642438Y-93652438D01*
X140931355Y-93220044D01*
X141032809Y-92710000D01*
X140931355Y-92199956D01*
X140642438Y-91767562D01*
X140210044Y-91478645D01*
X139828745Y-91402800D01*
X139571255Y-91402800D01*
X139189956Y-91478645D01*
X138757562Y-91767562D01*
X138476157Y-92188714D01*
X138476157Y-91860000D01*
X138440673Y-91681609D01*
X138339623Y-91530377D01*
X138188391Y-91429327D01*
X138010000Y-91393843D01*
X136310000Y-91393843D01*
X136131609Y-91429327D01*
X135980377Y-91530377D01*
X135879327Y-91681609D01*
X135843843Y-91860000D01*
X135843843Y-93560000D01*
X135879327Y-93738391D01*
X135980377Y-93889623D01*
X136131609Y-93990673D01*
X136310000Y-94026157D01*
X136638714Y-94026157D01*
X136217562Y-94307562D01*
X135928645Y-94739956D01*
X135827191Y-95250000D01*
X127557200Y-95250000D01*
X127557200Y-94770592D01*
X127746558Y-94770592D01*
X127770519Y-94945200D01*
X128520201Y-94945200D01*
X128520201Y-94192358D01*
X129129801Y-94192358D01*
X129129801Y-94945200D01*
X129879483Y-94945200D01*
X129903444Y-94770592D01*
X130286558Y-94770592D01*
X130310519Y-94945200D01*
X131060201Y-94945200D01*
X131060201Y-94192358D01*
X131669801Y-94192358D01*
X131669801Y-94945200D01*
X132419483Y-94945200D01*
X132443444Y-94770592D01*
X132220635Y-94437084D01*
X131844414Y-94171527D01*
X131669801Y-94192358D01*
X131060201Y-94192358D01*
X130885588Y-94171527D01*
X130509367Y-94437084D01*
X130286558Y-94770592D01*
X129903444Y-94770592D01*
X129680635Y-94437084D01*
X129304414Y-94171527D01*
X129129801Y-94192358D01*
X128520201Y-94192358D01*
X128345588Y-94171527D01*
X127969367Y-94437084D01*
X127746558Y-94770592D01*
X127557200Y-94770592D01*
X127557200Y-93757655D01*
X127645378Y-93889623D01*
X127796610Y-93990673D01*
X127975001Y-94026157D01*
X129675001Y-94026157D01*
X129853392Y-93990673D01*
X130004624Y-93889623D01*
X130105674Y-93738391D01*
X130141158Y-93560000D01*
X130141158Y-93231286D01*
X130422563Y-93652438D01*
X130854957Y-93941355D01*
X131236256Y-94017200D01*
X131493746Y-94017200D01*
X131875045Y-93941355D01*
X132307439Y-93652438D01*
X132596356Y-93220044D01*
X132697810Y-92710000D01*
X132596356Y-92199956D01*
X132307439Y-91767562D01*
X131875045Y-91478645D01*
X131493746Y-91402800D01*
X131236256Y-91402800D01*
X130854957Y-91478645D01*
X130422563Y-91767562D01*
X130141158Y-92188714D01*
X130141158Y-91860000D01*
X130105674Y-91681609D01*
X130004624Y-91530377D01*
X129853392Y-91429327D01*
X129675001Y-91393843D01*
X127975001Y-91393843D01*
X127796610Y-91429327D01*
X127645378Y-91530377D01*
X127557200Y-91662345D01*
X127557200Y-90727200D01*
X162002800Y-90727200D01*
X162002801Y-104852800D01*
G04 #@! TD*
M02*
