G04 #@! TF.GenerationSoftware,KiCad,Pcbnew,5.0.0*
G04 #@! TF.CreationDate,2019-01-10T22:51:14-06:00*
G04 #@! TF.ProjectId,stlink-swd,73746C696E6B2D7377642E6B69636164,rev?*
G04 #@! TF.SameCoordinates,Original*
G04 #@! TF.FileFunction,Copper,L1,Top,Signal*
G04 #@! TF.FilePolarity,Positive*
%FSLAX46Y46*%
G04 Gerber Fmt 4.6, Leading zero omitted, Abs format (unit mm)*
G04 Created by KiCad (PCBNEW 5.0.0) date Thu Jan 10 22:51:14 2019*
%MOMM*%
%LPD*%
G01*
G04 APERTURE LIST*
G04 #@! TA.AperFunction,ViaPad*
%ADD10C,0.762000*%
G04 #@! TD*
G04 #@! TA.AperFunction,SMDPad,CuDef*
%ADD11R,0.800000X0.800000*%
G04 #@! TD*
G04 #@! TA.AperFunction,ComponentPad*
%ADD12O,1.700000X1.700000*%
G04 #@! TD*
G04 #@! TA.AperFunction,ComponentPad*
%ADD13R,1.700000X1.700000*%
G04 #@! TD*
G04 #@! TA.AperFunction,SMDPad,CuDef*
%ADD14R,1.550000X0.600000*%
G04 #@! TD*
G04 #@! TA.AperFunction,SMDPad,CuDef*
%ADD15R,1.800000X1.200000*%
G04 #@! TD*
G04 #@! TA.AperFunction,SMDPad,CuDef*
%ADD16R,0.400000X0.600000*%
G04 #@! TD*
G04 #@! TA.AperFunction,ComponentPad*
%ADD17C,2.000000*%
G04 #@! TD*
G04 #@! TA.AperFunction,Conductor*
%ADD18C,0.254000*%
G04 #@! TD*
G04 #@! TA.AperFunction,Conductor*
%ADD19C,0.152400*%
G04 #@! TD*
G04 APERTURE END LIST*
D10*
G04 #@! TO.N,GND*
G04 #@! TO.C,REF\002A\002A*
X158877000Y-103632000D03*
G04 #@! TD*
G04 #@! TO.N,GND*
G04 #@! TO.C,REF\002A\002A*
X158750000Y-92964000D03*
G04 #@! TD*
G04 #@! TO.N,GND*
G04 #@! TO.C,REF\002A\002A*
X138176000Y-100076000D03*
G04 #@! TD*
G04 #@! TO.N,GND*
G04 #@! TO.C,REF\002A\002A*
X154432000Y-95504000D03*
G04 #@! TD*
G04 #@! TO.N,GND*
G04 #@! TO.C,REF\002A\002A*
X134620000Y-93726000D03*
G04 #@! TD*
G04 #@! TO.N,GND*
G04 #@! TO.C,REF\002A\002A*
X148590000Y-93472000D03*
G04 #@! TD*
G04 #@! TO.N,GND*
G04 #@! TO.C,REF\002A\002A*
X142240000Y-93726000D03*
G04 #@! TD*
G04 #@! TO.N,GND*
G04 #@! TO.C,REF\002A\002A*
X148590000Y-96266000D03*
G04 #@! TD*
G04 #@! TO.N,GND*
G04 #@! TO.C,REF\002A\002A*
X157226000Y-100330000D03*
G04 #@! TD*
D11*
G04 #@! TO.P,D1,1*
G04 #@! TO.N,Net-(D1-Pad1)*
X144310000Y-104140000D03*
G04 #@! TO.P,D1,2*
G04 #@! TO.N,+3V3*
X142710000Y-104140000D03*
G04 #@! TD*
D12*
G04 #@! TO.P,J1,6*
G04 #@! TO.N,/SWCLK_JST*
X139700000Y-97790000D03*
G04 #@! TO.P,J1,5*
G04 #@! TO.N,/SWCLK*
X137160000Y-97790000D03*
G04 #@! TO.P,J1,4*
G04 #@! TO.N,/NRST_JST*
X139700000Y-95250000D03*
G04 #@! TO.P,J1,3*
G04 #@! TO.N,/NRST*
X137160000Y-95250000D03*
G04 #@! TO.P,J1,2*
G04 #@! TO.N,/SWDIO_JST*
X139700000Y-92710000D03*
D13*
G04 #@! TO.P,J1,1*
G04 #@! TO.N,/SWDIO*
X137160000Y-92710000D03*
G04 #@! TD*
D12*
G04 #@! TO.P,J2,10*
G04 #@! TO.N,Net-(J2-Pad10)*
X131365001Y-102870000D03*
G04 #@! TO.P,J2,9*
G04 #@! TO.N,Net-(J2-Pad9)*
X128825001Y-102870000D03*
G04 #@! TO.P,J2,8*
G04 #@! TO.N,+3V3*
X131365001Y-100330000D03*
G04 #@! TO.P,J2,7*
X128825001Y-100330000D03*
G04 #@! TO.P,J2,6*
G04 #@! TO.N,/SWCLK*
X131365001Y-97790000D03*
G04 #@! TO.P,J2,5*
G04 #@! TO.N,Net-(J2-Pad5)*
X128825001Y-97790000D03*
G04 #@! TO.P,J2,4*
G04 #@! TO.N,GND*
X131365001Y-95250000D03*
G04 #@! TO.P,J2,3*
X128825001Y-95250000D03*
G04 #@! TO.P,J2,2*
G04 #@! TO.N,/SWDIO*
X131365001Y-92710000D03*
D13*
G04 #@! TO.P,J2,1*
G04 #@! TO.N,/NRST*
X128825001Y-92710000D03*
G04 #@! TD*
D14*
G04 #@! TO.P,J3,1*
G04 #@! TO.N,GND*
X157277000Y-99290000D03*
G04 #@! TO.P,J3,2*
G04 #@! TO.N,/NRST_JST*
X157277000Y-98290000D03*
G04 #@! TO.P,J3,3*
G04 #@! TO.N,/SWCLK_JST*
X157277000Y-97290000D03*
G04 #@! TO.P,J3,4*
G04 #@! TO.N,/SWDIO_JST*
X157277000Y-96290000D03*
D15*
G04 #@! TO.P,J3,NC*
G04 #@! TO.N,N/C*
X161152000Y-100590000D03*
X161152000Y-94990000D03*
G04 #@! TD*
D12*
G04 #@! TO.P,J4,2*
G04 #@! TO.N,GND*
X139700000Y-102870000D03*
D13*
G04 #@! TO.P,J4,1*
G04 #@! TO.N,+3V3*
X137160000Y-102870000D03*
G04 #@! TD*
D16*
G04 #@! TO.P,R1,2*
G04 #@! TO.N,GND*
X147770000Y-104140000D03*
G04 #@! TO.P,R1,1*
G04 #@! TO.N,Net-(D1-Pad1)*
X146870000Y-104140000D03*
G04 #@! TD*
D17*
G04 #@! TO.P,SW1,1*
G04 #@! TO.N,/NRST_JST*
X146130000Y-94488000D03*
G04 #@! TO.P,SW1,2*
G04 #@! TO.N,GND*
X146130000Y-99488000D03*
X151130000Y-99488000D03*
G04 #@! TO.P,SW1,1*
G04 #@! TO.N,/NRST_JST*
X151130000Y-94488000D03*
G04 #@! TD*
D10*
G04 #@! TO.N,GND*
G04 #@! TO.C,REF\002A\002A*
X155702000Y-99314000D03*
G04 #@! TD*
G04 #@! TO.N,GND*
G04 #@! TO.C,REF\002A\002A*
X148590000Y-104140000D03*
G04 #@! TD*
G04 #@! TO.N,/NRST_JST*
X154178000Y-98298000D03*
G04 #@! TD*
D18*
G04 #@! TO.N,Net-(D1-Pad1)*
X146870000Y-104140000D02*
X144310000Y-104140000D01*
G04 #@! TO.N,/NRST*
X129030000Y-94018999D02*
X133134999Y-94018999D01*
X128825001Y-92710000D02*
X128825001Y-93814000D01*
X128825001Y-93814000D02*
X129030000Y-94018999D01*
X134366000Y-95250000D02*
X137160000Y-95250000D01*
X133134999Y-94018999D02*
X134366000Y-95250000D01*
G04 #@! TO.N,/NRST_JST*
X145368000Y-95250000D02*
X146130000Y-94488000D01*
X139700000Y-95250000D02*
X145368000Y-95250000D01*
X147544213Y-94488000D02*
X151130000Y-94488000D01*
X146130000Y-94488000D02*
X147544213Y-94488000D01*
X157277000Y-98290000D02*
X154186000Y-98290000D01*
X154186000Y-98290000D02*
X154178000Y-98298000D01*
G04 #@! TO.N,/SWCLK*
X131365001Y-97790000D02*
X137160000Y-97790000D01*
G04 #@! TO.N,/SWCLK_JST*
X140200000Y-97290000D02*
X139700000Y-97790000D01*
X157277000Y-97290000D02*
X140200000Y-97290000D01*
G04 #@! TO.N,/SWDIO*
X131365001Y-92710000D02*
X137160000Y-92710000D01*
G04 #@! TO.N,/SWDIO_JST*
X157277000Y-95736000D02*
X157277000Y-96290000D01*
X153743000Y-92202000D02*
X157277000Y-95736000D01*
X139700000Y-92710000D02*
X140208000Y-92202000D01*
X140208000Y-92202000D02*
X153743000Y-92202000D01*
G04 #@! TO.N,GND*
X147770000Y-104140000D02*
X148590000Y-104140000D01*
G04 #@! TD*
D19*
G04 #@! TO.N,+3V3*
G36*
X135330742Y-101656383D02*
X135356221Y-101671707D01*
X135382000Y-101676200D01*
X139133751Y-101676200D01*
X138757562Y-101927562D01*
X138468645Y-102359956D01*
X138367191Y-102870000D01*
X138468645Y-103380044D01*
X138757562Y-103812438D01*
X139189956Y-104101355D01*
X139571255Y-104177200D01*
X139828745Y-104177200D01*
X140210044Y-104101355D01*
X140642438Y-103812438D01*
X140734726Y-103674319D01*
X141979800Y-103674319D01*
X141979800Y-103857450D01*
X142062350Y-103940000D01*
X142510000Y-103940000D01*
X142510000Y-103492350D01*
X142427450Y-103409800D01*
X142244319Y-103409800D01*
X142122957Y-103460070D01*
X142030070Y-103552957D01*
X141979800Y-103674319D01*
X140734726Y-103674319D01*
X140931355Y-103380044D01*
X141032809Y-102870000D01*
X140931355Y-102359956D01*
X140642438Y-101927562D01*
X140266249Y-101676200D01*
X143179800Y-101676200D01*
X143179800Y-103411506D01*
X143175681Y-103409800D01*
X142992550Y-103409800D01*
X142910000Y-103492350D01*
X142910000Y-103940000D01*
X143034800Y-103940000D01*
X143034800Y-104340000D01*
X142910000Y-104340000D01*
X142910000Y-104464800D01*
X142510000Y-104464800D01*
X142510000Y-104340000D01*
X142062350Y-104340000D01*
X141979800Y-104422550D01*
X141979800Y-104605681D01*
X142030070Y-104727043D01*
X142122957Y-104819930D01*
X142202312Y-104852800D01*
X127557200Y-104852800D01*
X127557200Y-103196817D01*
X127593646Y-103380044D01*
X127882563Y-103812438D01*
X128314957Y-104101355D01*
X128696256Y-104177200D01*
X128953746Y-104177200D01*
X129335045Y-104101355D01*
X129767439Y-103812438D01*
X130056356Y-103380044D01*
X130095001Y-103185762D01*
X130133646Y-103380044D01*
X130422563Y-103812438D01*
X130854957Y-104101355D01*
X131236256Y-104177200D01*
X131493746Y-104177200D01*
X131875045Y-104101355D01*
X132307439Y-103812438D01*
X132596356Y-103380044D01*
X132620761Y-103257350D01*
X135979800Y-103257350D01*
X135979800Y-103785681D01*
X136030070Y-103907043D01*
X136122957Y-103999930D01*
X136244319Y-104050200D01*
X136772650Y-104050200D01*
X136855200Y-103967650D01*
X136855200Y-103174800D01*
X137464800Y-103174800D01*
X137464800Y-103967650D01*
X137547350Y-104050200D01*
X138075681Y-104050200D01*
X138197043Y-103999930D01*
X138289930Y-103907043D01*
X138340200Y-103785681D01*
X138340200Y-103257350D01*
X138257650Y-103174800D01*
X137464800Y-103174800D01*
X136855200Y-103174800D01*
X136062350Y-103174800D01*
X135979800Y-103257350D01*
X132620761Y-103257350D01*
X132697810Y-102870000D01*
X132596356Y-102359956D01*
X132325318Y-101954319D01*
X135979800Y-101954319D01*
X135979800Y-102482650D01*
X136062350Y-102565200D01*
X136855200Y-102565200D01*
X136855200Y-101772350D01*
X137464800Y-101772350D01*
X137464800Y-102565200D01*
X138257650Y-102565200D01*
X138340200Y-102482650D01*
X138340200Y-101954319D01*
X138289930Y-101832957D01*
X138197043Y-101740070D01*
X138075681Y-101689800D01*
X137547350Y-101689800D01*
X137464800Y-101772350D01*
X136855200Y-101772350D01*
X136772650Y-101689800D01*
X136244319Y-101689800D01*
X136122957Y-101740070D01*
X136030070Y-101832957D01*
X135979800Y-101954319D01*
X132325318Y-101954319D01*
X132307439Y-101927562D01*
X131875045Y-101638645D01*
X131493746Y-101562800D01*
X131236256Y-101562800D01*
X130854957Y-101638645D01*
X130422563Y-101927562D01*
X130133646Y-102359956D01*
X130095001Y-102554238D01*
X130056356Y-102359956D01*
X129767439Y-101927562D01*
X129335045Y-101638645D01*
X128953746Y-101562800D01*
X128696256Y-101562800D01*
X128314957Y-101638645D01*
X127882563Y-101927562D01*
X127593646Y-102359956D01*
X127557200Y-102543183D01*
X127557200Y-100809408D01*
X127746558Y-100809408D01*
X127969367Y-101142916D01*
X128345588Y-101408473D01*
X128520201Y-101387642D01*
X128520201Y-100634800D01*
X129129801Y-100634800D01*
X129129801Y-101387642D01*
X129304414Y-101408473D01*
X129680635Y-101142916D01*
X129903444Y-100809408D01*
X130286558Y-100809408D01*
X130509367Y-101142916D01*
X130885588Y-101408473D01*
X131060201Y-101387642D01*
X131060201Y-100634800D01*
X131669801Y-100634800D01*
X131669801Y-101387642D01*
X131844414Y-101408473D01*
X132220635Y-101142916D01*
X132443444Y-100809408D01*
X132419483Y-100634800D01*
X131669801Y-100634800D01*
X131060201Y-100634800D01*
X130310519Y-100634800D01*
X130286558Y-100809408D01*
X129903444Y-100809408D01*
X129879483Y-100634800D01*
X129129801Y-100634800D01*
X128520201Y-100634800D01*
X127770519Y-100634800D01*
X127746558Y-100809408D01*
X127557200Y-100809408D01*
X127557200Y-99850592D01*
X127746558Y-99850592D01*
X127770519Y-100025200D01*
X128520201Y-100025200D01*
X128520201Y-99272358D01*
X129129801Y-99272358D01*
X129129801Y-100025200D01*
X129879483Y-100025200D01*
X129903444Y-99850592D01*
X130286558Y-99850592D01*
X130310519Y-100025200D01*
X131060201Y-100025200D01*
X131060201Y-99272358D01*
X131669801Y-99272358D01*
X131669801Y-100025200D01*
X132419483Y-100025200D01*
X132443444Y-99850592D01*
X132220635Y-99517084D01*
X131844414Y-99251527D01*
X131669801Y-99272358D01*
X131060201Y-99272358D01*
X130885588Y-99251527D01*
X130509367Y-99517084D01*
X130286558Y-99850592D01*
X129903444Y-99850592D01*
X129680635Y-99517084D01*
X129304414Y-99251527D01*
X129129801Y-99272358D01*
X128520201Y-99272358D01*
X128345588Y-99251527D01*
X127969367Y-99517084D01*
X127746558Y-99850592D01*
X127557200Y-99850592D01*
X127557200Y-99136200D01*
X132558541Y-99136200D01*
X135330742Y-101656383D01*
X135330742Y-101656383D01*
G37*
X135330742Y-101656383D02*
X135356221Y-101671707D01*
X135382000Y-101676200D01*
X139133751Y-101676200D01*
X138757562Y-101927562D01*
X138468645Y-102359956D01*
X138367191Y-102870000D01*
X138468645Y-103380044D01*
X138757562Y-103812438D01*
X139189956Y-104101355D01*
X139571255Y-104177200D01*
X139828745Y-104177200D01*
X140210044Y-104101355D01*
X140642438Y-103812438D01*
X140734726Y-103674319D01*
X141979800Y-103674319D01*
X141979800Y-103857450D01*
X142062350Y-103940000D01*
X142510000Y-103940000D01*
X142510000Y-103492350D01*
X142427450Y-103409800D01*
X142244319Y-103409800D01*
X142122957Y-103460070D01*
X142030070Y-103552957D01*
X141979800Y-103674319D01*
X140734726Y-103674319D01*
X140931355Y-103380044D01*
X141032809Y-102870000D01*
X140931355Y-102359956D01*
X140642438Y-101927562D01*
X140266249Y-101676200D01*
X143179800Y-101676200D01*
X143179800Y-103411506D01*
X143175681Y-103409800D01*
X142992550Y-103409800D01*
X142910000Y-103492350D01*
X142910000Y-103940000D01*
X143034800Y-103940000D01*
X143034800Y-104340000D01*
X142910000Y-104340000D01*
X142910000Y-104464800D01*
X142510000Y-104464800D01*
X142510000Y-104340000D01*
X142062350Y-104340000D01*
X141979800Y-104422550D01*
X141979800Y-104605681D01*
X142030070Y-104727043D01*
X142122957Y-104819930D01*
X142202312Y-104852800D01*
X127557200Y-104852800D01*
X127557200Y-103196817D01*
X127593646Y-103380044D01*
X127882563Y-103812438D01*
X128314957Y-104101355D01*
X128696256Y-104177200D01*
X128953746Y-104177200D01*
X129335045Y-104101355D01*
X129767439Y-103812438D01*
X130056356Y-103380044D01*
X130095001Y-103185762D01*
X130133646Y-103380044D01*
X130422563Y-103812438D01*
X130854957Y-104101355D01*
X131236256Y-104177200D01*
X131493746Y-104177200D01*
X131875045Y-104101355D01*
X132307439Y-103812438D01*
X132596356Y-103380044D01*
X132620761Y-103257350D01*
X135979800Y-103257350D01*
X135979800Y-103785681D01*
X136030070Y-103907043D01*
X136122957Y-103999930D01*
X136244319Y-104050200D01*
X136772650Y-104050200D01*
X136855200Y-103967650D01*
X136855200Y-103174800D01*
X137464800Y-103174800D01*
X137464800Y-103967650D01*
X137547350Y-104050200D01*
X138075681Y-104050200D01*
X138197043Y-103999930D01*
X138289930Y-103907043D01*
X138340200Y-103785681D01*
X138340200Y-103257350D01*
X138257650Y-103174800D01*
X137464800Y-103174800D01*
X136855200Y-103174800D01*
X136062350Y-103174800D01*
X135979800Y-103257350D01*
X132620761Y-103257350D01*
X132697810Y-102870000D01*
X132596356Y-102359956D01*
X132325318Y-101954319D01*
X135979800Y-101954319D01*
X135979800Y-102482650D01*
X136062350Y-102565200D01*
X136855200Y-102565200D01*
X136855200Y-101772350D01*
X137464800Y-101772350D01*
X137464800Y-102565200D01*
X138257650Y-102565200D01*
X138340200Y-102482650D01*
X138340200Y-101954319D01*
X138289930Y-101832957D01*
X138197043Y-101740070D01*
X138075681Y-101689800D01*
X137547350Y-101689800D01*
X137464800Y-101772350D01*
X136855200Y-101772350D01*
X136772650Y-101689800D01*
X136244319Y-101689800D01*
X136122957Y-101740070D01*
X136030070Y-101832957D01*
X135979800Y-101954319D01*
X132325318Y-101954319D01*
X132307439Y-101927562D01*
X131875045Y-101638645D01*
X131493746Y-101562800D01*
X131236256Y-101562800D01*
X130854957Y-101638645D01*
X130422563Y-101927562D01*
X130133646Y-102359956D01*
X130095001Y-102554238D01*
X130056356Y-102359956D01*
X129767439Y-101927562D01*
X129335045Y-101638645D01*
X128953746Y-101562800D01*
X128696256Y-101562800D01*
X128314957Y-101638645D01*
X127882563Y-101927562D01*
X127593646Y-102359956D01*
X127557200Y-102543183D01*
X127557200Y-100809408D01*
X127746558Y-100809408D01*
X127969367Y-101142916D01*
X128345588Y-101408473D01*
X128520201Y-101387642D01*
X128520201Y-100634800D01*
X129129801Y-100634800D01*
X129129801Y-101387642D01*
X129304414Y-101408473D01*
X129680635Y-101142916D01*
X129903444Y-100809408D01*
X130286558Y-100809408D01*
X130509367Y-101142916D01*
X130885588Y-101408473D01*
X131060201Y-101387642D01*
X131060201Y-100634800D01*
X131669801Y-100634800D01*
X131669801Y-101387642D01*
X131844414Y-101408473D01*
X132220635Y-101142916D01*
X132443444Y-100809408D01*
X132419483Y-100634800D01*
X131669801Y-100634800D01*
X131060201Y-100634800D01*
X130310519Y-100634800D01*
X130286558Y-100809408D01*
X129903444Y-100809408D01*
X129879483Y-100634800D01*
X129129801Y-100634800D01*
X128520201Y-100634800D01*
X127770519Y-100634800D01*
X127746558Y-100809408D01*
X127557200Y-100809408D01*
X127557200Y-99850592D01*
X127746558Y-99850592D01*
X127770519Y-100025200D01*
X128520201Y-100025200D01*
X128520201Y-99272358D01*
X129129801Y-99272358D01*
X129129801Y-100025200D01*
X129879483Y-100025200D01*
X129903444Y-99850592D01*
X130286558Y-99850592D01*
X130310519Y-100025200D01*
X131060201Y-100025200D01*
X131060201Y-99272358D01*
X131669801Y-99272358D01*
X131669801Y-100025200D01*
X132419483Y-100025200D01*
X132443444Y-99850592D01*
X132220635Y-99517084D01*
X131844414Y-99251527D01*
X131669801Y-99272358D01*
X131060201Y-99272358D01*
X130885588Y-99251527D01*
X130509367Y-99517084D01*
X130286558Y-99850592D01*
X129903444Y-99850592D01*
X129680635Y-99517084D01*
X129304414Y-99251527D01*
X129129801Y-99272358D01*
X128520201Y-99272358D01*
X128345588Y-99251527D01*
X127969367Y-99517084D01*
X127746558Y-99850592D01*
X127557200Y-99850592D01*
X127557200Y-99136200D01*
X132558541Y-99136200D01*
X135330742Y-101656383D01*
G04 #@! TO.N,GND*
G36*
X162002800Y-93923843D02*
X160252000Y-93923843D01*
X160073609Y-93959327D01*
X159922377Y-94060377D01*
X159821327Y-94211609D01*
X159785843Y-94390000D01*
X159785843Y-95590000D01*
X159821327Y-95768391D01*
X159922377Y-95919623D01*
X160073609Y-96020673D01*
X160252000Y-96056157D01*
X162002800Y-96056157D01*
X162002801Y-99523843D01*
X160252000Y-99523843D01*
X160073609Y-99559327D01*
X159922377Y-99660377D01*
X159821327Y-99811609D01*
X159785843Y-99990000D01*
X159785843Y-101190000D01*
X159821327Y-101368391D01*
X159922377Y-101519623D01*
X160073609Y-101620673D01*
X160252000Y-101656157D01*
X162002801Y-101656157D01*
X162002801Y-104852800D01*
X147275140Y-104852800D01*
X147399623Y-104769623D01*
X147422016Y-104736109D01*
X147504319Y-104770200D01*
X147587450Y-104770200D01*
X147670000Y-104687650D01*
X147670000Y-104290000D01*
X147870000Y-104290000D01*
X147870000Y-104687650D01*
X147952550Y-104770200D01*
X148035681Y-104770200D01*
X148157043Y-104719930D01*
X148249930Y-104627043D01*
X148300200Y-104505681D01*
X148300200Y-104372550D01*
X148217650Y-104290000D01*
X147870000Y-104290000D01*
X147670000Y-104290000D01*
X147570000Y-104290000D01*
X147570000Y-103990000D01*
X147670000Y-103990000D01*
X147670000Y-103592350D01*
X147870000Y-103592350D01*
X147870000Y-103990000D01*
X148217650Y-103990000D01*
X148300200Y-103907450D01*
X148300200Y-103774319D01*
X148249930Y-103652957D01*
X148157043Y-103560070D01*
X148035681Y-103509800D01*
X147952550Y-103509800D01*
X147870000Y-103592350D01*
X147670000Y-103592350D01*
X147587450Y-103509800D01*
X147504319Y-103509800D01*
X147422016Y-103543891D01*
X147399623Y-103510377D01*
X147248391Y-103409327D01*
X147070000Y-103373843D01*
X146670000Y-103373843D01*
X146491609Y-103409327D01*
X146340377Y-103510377D01*
X146310026Y-103555800D01*
X145136792Y-103555800D01*
X145039623Y-103410377D01*
X144888391Y-103309327D01*
X144710000Y-103273843D01*
X143910000Y-103273843D01*
X143731609Y-103309327D01*
X143713200Y-103321628D01*
X143713200Y-101600000D01*
X143678398Y-101425037D01*
X143579289Y-101276711D01*
X143430963Y-101177602D01*
X143256000Y-101142800D01*
X135558757Y-101142800D01*
X134937485Y-100578007D01*
X145471045Y-100578007D01*
X145599791Y-100736327D01*
X146117865Y-100844206D01*
X146637786Y-100745615D01*
X146660209Y-100736327D01*
X146788955Y-100578007D01*
X150471045Y-100578007D01*
X150599791Y-100736327D01*
X151117865Y-100844206D01*
X151637786Y-100745615D01*
X151660209Y-100736327D01*
X151788955Y-100578007D01*
X151130000Y-99919052D01*
X150471045Y-100578007D01*
X146788955Y-100578007D01*
X146130000Y-99919052D01*
X145471045Y-100578007D01*
X134937485Y-100578007D01*
X133725129Y-99475865D01*
X144773794Y-99475865D01*
X144872385Y-99995786D01*
X144881673Y-100018209D01*
X145039993Y-100146955D01*
X145698948Y-99488000D01*
X146561052Y-99488000D01*
X147220007Y-100146955D01*
X147378327Y-100018209D01*
X147486206Y-99500135D01*
X147481604Y-99475865D01*
X149773794Y-99475865D01*
X149872385Y-99995786D01*
X149881673Y-100018209D01*
X150039993Y-100146955D01*
X150698948Y-99488000D01*
X151561052Y-99488000D01*
X152220007Y-100146955D01*
X152378327Y-100018209D01*
X152481538Y-99522550D01*
X156171800Y-99522550D01*
X156171800Y-99655681D01*
X156222070Y-99777043D01*
X156314957Y-99869930D01*
X156436319Y-99920200D01*
X156889650Y-99920200D01*
X156972200Y-99837650D01*
X156972200Y-99440000D01*
X157581800Y-99440000D01*
X157581800Y-99837650D01*
X157664350Y-99920200D01*
X158117681Y-99920200D01*
X158239043Y-99869930D01*
X158331930Y-99777043D01*
X158382200Y-99655681D01*
X158382200Y-99522550D01*
X158299650Y-99440000D01*
X157581800Y-99440000D01*
X156972200Y-99440000D01*
X156254350Y-99440000D01*
X156171800Y-99522550D01*
X152481538Y-99522550D01*
X152486206Y-99500135D01*
X152387615Y-98980214D01*
X152378327Y-98957791D01*
X152220007Y-98829045D01*
X151561052Y-99488000D01*
X150698948Y-99488000D01*
X150039993Y-98829045D01*
X149881673Y-98957791D01*
X149773794Y-99475865D01*
X147481604Y-99475865D01*
X147387615Y-98980214D01*
X147378327Y-98957791D01*
X147220007Y-98829045D01*
X146561052Y-99488000D01*
X145698948Y-99488000D01*
X145039993Y-98829045D01*
X144881673Y-98957791D01*
X144773794Y-99475865D01*
X133725129Y-99475865D01*
X132895546Y-98721699D01*
X132762963Y-98637602D01*
X132588000Y-98602800D01*
X132394061Y-98602800D01*
X132546806Y-98374200D01*
X135978195Y-98374200D01*
X136217562Y-98732438D01*
X136649956Y-99021355D01*
X137031255Y-99097200D01*
X137288745Y-99097200D01*
X137670044Y-99021355D01*
X138102438Y-98732438D01*
X138391355Y-98300044D01*
X138430000Y-98105762D01*
X138468645Y-98300044D01*
X138757562Y-98732438D01*
X139189956Y-99021355D01*
X139571255Y-99097200D01*
X139828745Y-99097200D01*
X140210044Y-99021355D01*
X140642438Y-98732438D01*
X140865907Y-98397993D01*
X145471045Y-98397993D01*
X146130000Y-99056948D01*
X146788955Y-98397993D01*
X150471045Y-98397993D01*
X151130000Y-99056948D01*
X151788955Y-98397993D01*
X151660209Y-98239673D01*
X151142135Y-98131794D01*
X150622214Y-98230385D01*
X150599791Y-98239673D01*
X150471045Y-98397993D01*
X146788955Y-98397993D01*
X146660209Y-98239673D01*
X146142135Y-98131794D01*
X145622214Y-98230385D01*
X145599791Y-98239673D01*
X145471045Y-98397993D01*
X140865907Y-98397993D01*
X140931355Y-98300044D01*
X141016061Y-97874200D01*
X153446283Y-97874200D01*
X153339800Y-98131272D01*
X153339800Y-98464728D01*
X153467409Y-98772802D01*
X153703198Y-99008591D01*
X154011272Y-99136200D01*
X154344728Y-99136200D01*
X154652802Y-99008591D01*
X154787193Y-98874200D01*
X156142026Y-98874200D01*
X156172377Y-98919623D01*
X156173449Y-98920339D01*
X156171800Y-98924319D01*
X156171800Y-99057450D01*
X156254350Y-99140000D01*
X156972200Y-99140000D01*
X156972200Y-99056157D01*
X157581800Y-99056157D01*
X157581800Y-99140000D01*
X158299650Y-99140000D01*
X158382200Y-99057450D01*
X158382200Y-98924319D01*
X158380551Y-98920339D01*
X158381623Y-98919623D01*
X158482673Y-98768391D01*
X158518157Y-98590000D01*
X158518157Y-97990000D01*
X158482673Y-97811609D01*
X158468234Y-97790000D01*
X158482673Y-97768391D01*
X158518157Y-97590000D01*
X158518157Y-96990000D01*
X158482673Y-96811609D01*
X158468234Y-96790000D01*
X158482673Y-96768391D01*
X158518157Y-96590000D01*
X158518157Y-95990000D01*
X158482673Y-95811609D01*
X158381623Y-95660377D01*
X158230391Y-95559327D01*
X158052000Y-95523843D01*
X157830444Y-95523843D01*
X157827304Y-95508057D01*
X157698185Y-95314815D01*
X157649404Y-95282221D01*
X154196781Y-91829599D01*
X154164185Y-91780815D01*
X153970943Y-91651696D01*
X153800537Y-91617800D01*
X153800536Y-91617800D01*
X153743000Y-91606355D01*
X153685464Y-91617800D01*
X140418304Y-91617800D01*
X140210044Y-91478645D01*
X139828745Y-91402800D01*
X139571255Y-91402800D01*
X139189956Y-91478645D01*
X138757562Y-91767562D01*
X138476157Y-92188714D01*
X138476157Y-91860000D01*
X138440673Y-91681609D01*
X138339623Y-91530377D01*
X138188391Y-91429327D01*
X138010000Y-91393843D01*
X136310000Y-91393843D01*
X136131609Y-91429327D01*
X135980377Y-91530377D01*
X135879327Y-91681609D01*
X135843843Y-91860000D01*
X135843843Y-92125800D01*
X132546806Y-92125800D01*
X132307439Y-91767562D01*
X131875045Y-91478645D01*
X131493746Y-91402800D01*
X131236256Y-91402800D01*
X130854957Y-91478645D01*
X130422563Y-91767562D01*
X130141158Y-92188714D01*
X130141158Y-91860000D01*
X130105674Y-91681609D01*
X130004624Y-91530377D01*
X129853392Y-91429327D01*
X129675001Y-91393843D01*
X127975001Y-91393843D01*
X127796610Y-91429327D01*
X127645378Y-91530377D01*
X127557200Y-91662345D01*
X127557200Y-90727200D01*
X162002800Y-90727200D01*
X162002800Y-93923843D01*
X162002800Y-93923843D01*
G37*
X162002800Y-93923843D02*
X160252000Y-93923843D01*
X160073609Y-93959327D01*
X159922377Y-94060377D01*
X159821327Y-94211609D01*
X159785843Y-94390000D01*
X159785843Y-95590000D01*
X159821327Y-95768391D01*
X159922377Y-95919623D01*
X160073609Y-96020673D01*
X160252000Y-96056157D01*
X162002800Y-96056157D01*
X162002801Y-99523843D01*
X160252000Y-99523843D01*
X160073609Y-99559327D01*
X159922377Y-99660377D01*
X159821327Y-99811609D01*
X159785843Y-99990000D01*
X159785843Y-101190000D01*
X159821327Y-101368391D01*
X159922377Y-101519623D01*
X160073609Y-101620673D01*
X160252000Y-101656157D01*
X162002801Y-101656157D01*
X162002801Y-104852800D01*
X147275140Y-104852800D01*
X147399623Y-104769623D01*
X147422016Y-104736109D01*
X147504319Y-104770200D01*
X147587450Y-104770200D01*
X147670000Y-104687650D01*
X147670000Y-104290000D01*
X147870000Y-104290000D01*
X147870000Y-104687650D01*
X147952550Y-104770200D01*
X148035681Y-104770200D01*
X148157043Y-104719930D01*
X148249930Y-104627043D01*
X148300200Y-104505681D01*
X148300200Y-104372550D01*
X148217650Y-104290000D01*
X147870000Y-104290000D01*
X147670000Y-104290000D01*
X147570000Y-104290000D01*
X147570000Y-103990000D01*
X147670000Y-103990000D01*
X147670000Y-103592350D01*
X147870000Y-103592350D01*
X147870000Y-103990000D01*
X148217650Y-103990000D01*
X148300200Y-103907450D01*
X148300200Y-103774319D01*
X148249930Y-103652957D01*
X148157043Y-103560070D01*
X148035681Y-103509800D01*
X147952550Y-103509800D01*
X147870000Y-103592350D01*
X147670000Y-103592350D01*
X147587450Y-103509800D01*
X147504319Y-103509800D01*
X147422016Y-103543891D01*
X147399623Y-103510377D01*
X147248391Y-103409327D01*
X147070000Y-103373843D01*
X146670000Y-103373843D01*
X146491609Y-103409327D01*
X146340377Y-103510377D01*
X146310026Y-103555800D01*
X145136792Y-103555800D01*
X145039623Y-103410377D01*
X144888391Y-103309327D01*
X144710000Y-103273843D01*
X143910000Y-103273843D01*
X143731609Y-103309327D01*
X143713200Y-103321628D01*
X143713200Y-101600000D01*
X143678398Y-101425037D01*
X143579289Y-101276711D01*
X143430963Y-101177602D01*
X143256000Y-101142800D01*
X135558757Y-101142800D01*
X134937485Y-100578007D01*
X145471045Y-100578007D01*
X145599791Y-100736327D01*
X146117865Y-100844206D01*
X146637786Y-100745615D01*
X146660209Y-100736327D01*
X146788955Y-100578007D01*
X150471045Y-100578007D01*
X150599791Y-100736327D01*
X151117865Y-100844206D01*
X151637786Y-100745615D01*
X151660209Y-100736327D01*
X151788955Y-100578007D01*
X151130000Y-99919052D01*
X150471045Y-100578007D01*
X146788955Y-100578007D01*
X146130000Y-99919052D01*
X145471045Y-100578007D01*
X134937485Y-100578007D01*
X133725129Y-99475865D01*
X144773794Y-99475865D01*
X144872385Y-99995786D01*
X144881673Y-100018209D01*
X145039993Y-100146955D01*
X145698948Y-99488000D01*
X146561052Y-99488000D01*
X147220007Y-100146955D01*
X147378327Y-100018209D01*
X147486206Y-99500135D01*
X147481604Y-99475865D01*
X149773794Y-99475865D01*
X149872385Y-99995786D01*
X149881673Y-100018209D01*
X150039993Y-100146955D01*
X150698948Y-99488000D01*
X151561052Y-99488000D01*
X152220007Y-100146955D01*
X152378327Y-100018209D01*
X152481538Y-99522550D01*
X156171800Y-99522550D01*
X156171800Y-99655681D01*
X156222070Y-99777043D01*
X156314957Y-99869930D01*
X156436319Y-99920200D01*
X156889650Y-99920200D01*
X156972200Y-99837650D01*
X156972200Y-99440000D01*
X157581800Y-99440000D01*
X157581800Y-99837650D01*
X157664350Y-99920200D01*
X158117681Y-99920200D01*
X158239043Y-99869930D01*
X158331930Y-99777043D01*
X158382200Y-99655681D01*
X158382200Y-99522550D01*
X158299650Y-99440000D01*
X157581800Y-99440000D01*
X156972200Y-99440000D01*
X156254350Y-99440000D01*
X156171800Y-99522550D01*
X152481538Y-99522550D01*
X152486206Y-99500135D01*
X152387615Y-98980214D01*
X152378327Y-98957791D01*
X152220007Y-98829045D01*
X151561052Y-99488000D01*
X150698948Y-99488000D01*
X150039993Y-98829045D01*
X149881673Y-98957791D01*
X149773794Y-99475865D01*
X147481604Y-99475865D01*
X147387615Y-98980214D01*
X147378327Y-98957791D01*
X147220007Y-98829045D01*
X146561052Y-99488000D01*
X145698948Y-99488000D01*
X145039993Y-98829045D01*
X144881673Y-98957791D01*
X144773794Y-99475865D01*
X133725129Y-99475865D01*
X132895546Y-98721699D01*
X132762963Y-98637602D01*
X132588000Y-98602800D01*
X132394061Y-98602800D01*
X132546806Y-98374200D01*
X135978195Y-98374200D01*
X136217562Y-98732438D01*
X136649956Y-99021355D01*
X137031255Y-99097200D01*
X137288745Y-99097200D01*
X137670044Y-99021355D01*
X138102438Y-98732438D01*
X138391355Y-98300044D01*
X138430000Y-98105762D01*
X138468645Y-98300044D01*
X138757562Y-98732438D01*
X139189956Y-99021355D01*
X139571255Y-99097200D01*
X139828745Y-99097200D01*
X140210044Y-99021355D01*
X140642438Y-98732438D01*
X140865907Y-98397993D01*
X145471045Y-98397993D01*
X146130000Y-99056948D01*
X146788955Y-98397993D01*
X150471045Y-98397993D01*
X151130000Y-99056948D01*
X151788955Y-98397993D01*
X151660209Y-98239673D01*
X151142135Y-98131794D01*
X150622214Y-98230385D01*
X150599791Y-98239673D01*
X150471045Y-98397993D01*
X146788955Y-98397993D01*
X146660209Y-98239673D01*
X146142135Y-98131794D01*
X145622214Y-98230385D01*
X145599791Y-98239673D01*
X145471045Y-98397993D01*
X140865907Y-98397993D01*
X140931355Y-98300044D01*
X141016061Y-97874200D01*
X153446283Y-97874200D01*
X153339800Y-98131272D01*
X153339800Y-98464728D01*
X153467409Y-98772802D01*
X153703198Y-99008591D01*
X154011272Y-99136200D01*
X154344728Y-99136200D01*
X154652802Y-99008591D01*
X154787193Y-98874200D01*
X156142026Y-98874200D01*
X156172377Y-98919623D01*
X156173449Y-98920339D01*
X156171800Y-98924319D01*
X156171800Y-99057450D01*
X156254350Y-99140000D01*
X156972200Y-99140000D01*
X156972200Y-99056157D01*
X157581800Y-99056157D01*
X157581800Y-99140000D01*
X158299650Y-99140000D01*
X158382200Y-99057450D01*
X158382200Y-98924319D01*
X158380551Y-98920339D01*
X158381623Y-98919623D01*
X158482673Y-98768391D01*
X158518157Y-98590000D01*
X158518157Y-97990000D01*
X158482673Y-97811609D01*
X158468234Y-97790000D01*
X158482673Y-97768391D01*
X158518157Y-97590000D01*
X158518157Y-96990000D01*
X158482673Y-96811609D01*
X158468234Y-96790000D01*
X158482673Y-96768391D01*
X158518157Y-96590000D01*
X158518157Y-95990000D01*
X158482673Y-95811609D01*
X158381623Y-95660377D01*
X158230391Y-95559327D01*
X158052000Y-95523843D01*
X157830444Y-95523843D01*
X157827304Y-95508057D01*
X157698185Y-95314815D01*
X157649404Y-95282221D01*
X154196781Y-91829599D01*
X154164185Y-91780815D01*
X153970943Y-91651696D01*
X153800537Y-91617800D01*
X153800536Y-91617800D01*
X153743000Y-91606355D01*
X153685464Y-91617800D01*
X140418304Y-91617800D01*
X140210044Y-91478645D01*
X139828745Y-91402800D01*
X139571255Y-91402800D01*
X139189956Y-91478645D01*
X138757562Y-91767562D01*
X138476157Y-92188714D01*
X138476157Y-91860000D01*
X138440673Y-91681609D01*
X138339623Y-91530377D01*
X138188391Y-91429327D01*
X138010000Y-91393843D01*
X136310000Y-91393843D01*
X136131609Y-91429327D01*
X135980377Y-91530377D01*
X135879327Y-91681609D01*
X135843843Y-91860000D01*
X135843843Y-92125800D01*
X132546806Y-92125800D01*
X132307439Y-91767562D01*
X131875045Y-91478645D01*
X131493746Y-91402800D01*
X131236256Y-91402800D01*
X130854957Y-91478645D01*
X130422563Y-91767562D01*
X130141158Y-92188714D01*
X130141158Y-91860000D01*
X130105674Y-91681609D01*
X130004624Y-91530377D01*
X129853392Y-91429327D01*
X129675001Y-91393843D01*
X127975001Y-91393843D01*
X127796610Y-91429327D01*
X127645378Y-91530377D01*
X127557200Y-91662345D01*
X127557200Y-90727200D01*
X162002800Y-90727200D01*
X162002800Y-93923843D01*
G36*
X127645378Y-93889623D02*
X127796610Y-93990673D01*
X127975001Y-94026157D01*
X128271558Y-94026157D01*
X128274698Y-94041943D01*
X128362642Y-94173561D01*
X128345588Y-94171527D01*
X127969367Y-94437084D01*
X127746558Y-94770592D01*
X127770519Y-94945200D01*
X128520201Y-94945200D01*
X128520201Y-94925200D01*
X129129801Y-94925200D01*
X129129801Y-94945200D01*
X129879483Y-94945200D01*
X129903444Y-94770592D01*
X129791613Y-94603199D01*
X130398389Y-94603199D01*
X130286558Y-94770592D01*
X130310519Y-94945200D01*
X131060201Y-94945200D01*
X131060201Y-94925200D01*
X131669801Y-94925200D01*
X131669801Y-94945200D01*
X132419483Y-94945200D01*
X132443444Y-94770592D01*
X132331613Y-94603199D01*
X132893017Y-94603199D01*
X133912222Y-95622406D01*
X133944815Y-95671185D01*
X134138057Y-95800304D01*
X134308463Y-95834200D01*
X134365999Y-95845645D01*
X134423535Y-95834200D01*
X135978195Y-95834200D01*
X136217562Y-96192438D01*
X136649956Y-96481355D01*
X136844238Y-96520000D01*
X136649956Y-96558645D01*
X136217562Y-96847562D01*
X135978195Y-97205800D01*
X132546806Y-97205800D01*
X132307439Y-96847562D01*
X131875045Y-96558645D01*
X131493746Y-96482800D01*
X131236256Y-96482800D01*
X130854957Y-96558645D01*
X130422563Y-96847562D01*
X130133646Y-97279956D01*
X130095001Y-97474238D01*
X130056356Y-97279956D01*
X129767439Y-96847562D01*
X129335045Y-96558645D01*
X128953746Y-96482800D01*
X128696256Y-96482800D01*
X128314957Y-96558645D01*
X127882563Y-96847562D01*
X127593646Y-97279956D01*
X127557200Y-97463183D01*
X127557200Y-95729408D01*
X127746558Y-95729408D01*
X127969367Y-96062916D01*
X128345588Y-96328473D01*
X128520201Y-96307642D01*
X128520201Y-95554800D01*
X129129801Y-95554800D01*
X129129801Y-96307642D01*
X129304414Y-96328473D01*
X129680635Y-96062916D01*
X129903444Y-95729408D01*
X130286558Y-95729408D01*
X130509367Y-96062916D01*
X130885588Y-96328473D01*
X131060201Y-96307642D01*
X131060201Y-95554800D01*
X131669801Y-95554800D01*
X131669801Y-96307642D01*
X131844414Y-96328473D01*
X132220635Y-96062916D01*
X132443444Y-95729408D01*
X132419483Y-95554800D01*
X131669801Y-95554800D01*
X131060201Y-95554800D01*
X130310519Y-95554800D01*
X130286558Y-95729408D01*
X129903444Y-95729408D01*
X129879483Y-95554800D01*
X129129801Y-95554800D01*
X128520201Y-95554800D01*
X127770519Y-95554800D01*
X127746558Y-95729408D01*
X127557200Y-95729408D01*
X127557200Y-93757655D01*
X127645378Y-93889623D01*
X127645378Y-93889623D01*
G37*
X127645378Y-93889623D02*
X127796610Y-93990673D01*
X127975001Y-94026157D01*
X128271558Y-94026157D01*
X128274698Y-94041943D01*
X128362642Y-94173561D01*
X128345588Y-94171527D01*
X127969367Y-94437084D01*
X127746558Y-94770592D01*
X127770519Y-94945200D01*
X128520201Y-94945200D01*
X128520201Y-94925200D01*
X129129801Y-94925200D01*
X129129801Y-94945200D01*
X129879483Y-94945200D01*
X129903444Y-94770592D01*
X129791613Y-94603199D01*
X130398389Y-94603199D01*
X130286558Y-94770592D01*
X130310519Y-94945200D01*
X131060201Y-94945200D01*
X131060201Y-94925200D01*
X131669801Y-94925200D01*
X131669801Y-94945200D01*
X132419483Y-94945200D01*
X132443444Y-94770592D01*
X132331613Y-94603199D01*
X132893017Y-94603199D01*
X133912222Y-95622406D01*
X133944815Y-95671185D01*
X134138057Y-95800304D01*
X134308463Y-95834200D01*
X134365999Y-95845645D01*
X134423535Y-95834200D01*
X135978195Y-95834200D01*
X136217562Y-96192438D01*
X136649956Y-96481355D01*
X136844238Y-96520000D01*
X136649956Y-96558645D01*
X136217562Y-96847562D01*
X135978195Y-97205800D01*
X132546806Y-97205800D01*
X132307439Y-96847562D01*
X131875045Y-96558645D01*
X131493746Y-96482800D01*
X131236256Y-96482800D01*
X130854957Y-96558645D01*
X130422563Y-96847562D01*
X130133646Y-97279956D01*
X130095001Y-97474238D01*
X130056356Y-97279956D01*
X129767439Y-96847562D01*
X129335045Y-96558645D01*
X128953746Y-96482800D01*
X128696256Y-96482800D01*
X128314957Y-96558645D01*
X127882563Y-96847562D01*
X127593646Y-97279956D01*
X127557200Y-97463183D01*
X127557200Y-95729408D01*
X127746558Y-95729408D01*
X127969367Y-96062916D01*
X128345588Y-96328473D01*
X128520201Y-96307642D01*
X128520201Y-95554800D01*
X129129801Y-95554800D01*
X129129801Y-96307642D01*
X129304414Y-96328473D01*
X129680635Y-96062916D01*
X129903444Y-95729408D01*
X130286558Y-95729408D01*
X130509367Y-96062916D01*
X130885588Y-96328473D01*
X131060201Y-96307642D01*
X131060201Y-95554800D01*
X131669801Y-95554800D01*
X131669801Y-96307642D01*
X131844414Y-96328473D01*
X132220635Y-96062916D01*
X132443444Y-95729408D01*
X132419483Y-95554800D01*
X131669801Y-95554800D01*
X131060201Y-95554800D01*
X130310519Y-95554800D01*
X130286558Y-95729408D01*
X129903444Y-95729408D01*
X129879483Y-95554800D01*
X129129801Y-95554800D01*
X128520201Y-95554800D01*
X127770519Y-95554800D01*
X127746558Y-95729408D01*
X127557200Y-95729408D01*
X127557200Y-93757655D01*
X127645378Y-93889623D01*
G36*
X156293957Y-95579140D02*
X156172377Y-95660377D01*
X156071327Y-95811609D01*
X156035843Y-95990000D01*
X156035843Y-96590000D01*
X156058877Y-96705800D01*
X140430277Y-96705800D01*
X140210044Y-96558645D01*
X140015762Y-96520000D01*
X140210044Y-96481355D01*
X140642438Y-96192438D01*
X140881805Y-95834200D01*
X145310464Y-95834200D01*
X145368000Y-95845645D01*
X145425536Y-95834200D01*
X145425537Y-95834200D01*
X145524598Y-95814496D01*
X145840145Y-95945200D01*
X146419855Y-95945200D01*
X146955437Y-95723354D01*
X147365354Y-95313437D01*
X147465278Y-95072200D01*
X149794722Y-95072200D01*
X149894646Y-95313437D01*
X150304563Y-95723354D01*
X150840145Y-95945200D01*
X151419855Y-95945200D01*
X151955437Y-95723354D01*
X152365354Y-95313437D01*
X152587200Y-94777855D01*
X152587200Y-94198145D01*
X152365354Y-93662563D01*
X151955437Y-93252646D01*
X151419855Y-93030800D01*
X150840145Y-93030800D01*
X150304563Y-93252646D01*
X149894646Y-93662563D01*
X149794722Y-93903800D01*
X147465278Y-93903800D01*
X147365354Y-93662563D01*
X146955437Y-93252646D01*
X146419855Y-93030800D01*
X145840145Y-93030800D01*
X145304563Y-93252646D01*
X144894646Y-93662563D01*
X144672800Y-94198145D01*
X144672800Y-94665800D01*
X140881805Y-94665800D01*
X140642438Y-94307562D01*
X140210044Y-94018645D01*
X140015762Y-93980000D01*
X140210044Y-93941355D01*
X140642438Y-93652438D01*
X140931355Y-93220044D01*
X141017652Y-92786200D01*
X153501018Y-92786200D01*
X156293957Y-95579140D01*
X156293957Y-95579140D01*
G37*
X156293957Y-95579140D02*
X156172377Y-95660377D01*
X156071327Y-95811609D01*
X156035843Y-95990000D01*
X156035843Y-96590000D01*
X156058877Y-96705800D01*
X140430277Y-96705800D01*
X140210044Y-96558645D01*
X140015762Y-96520000D01*
X140210044Y-96481355D01*
X140642438Y-96192438D01*
X140881805Y-95834200D01*
X145310464Y-95834200D01*
X145368000Y-95845645D01*
X145425536Y-95834200D01*
X145425537Y-95834200D01*
X145524598Y-95814496D01*
X145840145Y-95945200D01*
X146419855Y-95945200D01*
X146955437Y-95723354D01*
X147365354Y-95313437D01*
X147465278Y-95072200D01*
X149794722Y-95072200D01*
X149894646Y-95313437D01*
X150304563Y-95723354D01*
X150840145Y-95945200D01*
X151419855Y-95945200D01*
X151955437Y-95723354D01*
X152365354Y-95313437D01*
X152587200Y-94777855D01*
X152587200Y-94198145D01*
X152365354Y-93662563D01*
X151955437Y-93252646D01*
X151419855Y-93030800D01*
X150840145Y-93030800D01*
X150304563Y-93252646D01*
X149894646Y-93662563D01*
X149794722Y-93903800D01*
X147465278Y-93903800D01*
X147365354Y-93662563D01*
X146955437Y-93252646D01*
X146419855Y-93030800D01*
X145840145Y-93030800D01*
X145304563Y-93252646D01*
X144894646Y-93662563D01*
X144672800Y-94198145D01*
X144672800Y-94665800D01*
X140881805Y-94665800D01*
X140642438Y-94307562D01*
X140210044Y-94018645D01*
X140015762Y-93980000D01*
X140210044Y-93941355D01*
X140642438Y-93652438D01*
X140931355Y-93220044D01*
X141017652Y-92786200D01*
X153501018Y-92786200D01*
X156293957Y-95579140D01*
G36*
X135843843Y-93560000D02*
X135879327Y-93738391D01*
X135980377Y-93889623D01*
X136131609Y-93990673D01*
X136310000Y-94026157D01*
X136638714Y-94026157D01*
X136217562Y-94307562D01*
X135978195Y-94665800D01*
X134607984Y-94665800D01*
X133588780Y-93646598D01*
X133556184Y-93597814D01*
X133362942Y-93468695D01*
X133192536Y-93434799D01*
X133192535Y-93434799D01*
X133134999Y-93423354D01*
X133077463Y-93434799D01*
X132452861Y-93434799D01*
X132546806Y-93294200D01*
X135843843Y-93294200D01*
X135843843Y-93560000D01*
X135843843Y-93560000D01*
G37*
X135843843Y-93560000D02*
X135879327Y-93738391D01*
X135980377Y-93889623D01*
X136131609Y-93990673D01*
X136310000Y-94026157D01*
X136638714Y-94026157D01*
X136217562Y-94307562D01*
X135978195Y-94665800D01*
X134607984Y-94665800D01*
X133588780Y-93646598D01*
X133556184Y-93597814D01*
X133362942Y-93468695D01*
X133192536Y-93434799D01*
X133192535Y-93434799D01*
X133134999Y-93423354D01*
X133077463Y-93434799D01*
X132452861Y-93434799D01*
X132546806Y-93294200D01*
X135843843Y-93294200D01*
X135843843Y-93560000D01*
G04 #@! TD*
M02*
