M48
;DRILL file {KiCad 5.0.0} date Thu Jan 10 22:51:26 2019
;FORMAT={-:-/ absolute / inch / decimal}
FMAT,2
INCH,TZ
T1C0.0150
T2C0.0394
T3C0.0433
%
G90
G05
M72
T1
X6.07Y-3.87
X5.3Y-3.69
X6.255Y-4.08
X5.85Y-3.79
X6.08Y-3.76
X5.85Y-4.1
X6.13Y-3.91
X6.25Y-3.66
X6.19Y-3.95
X5.44Y-3.94
X5.6Y-3.69
X5.85Y-3.68
T2
X5.4Y-4.05
X5.5Y-4.05
X5.4Y-3.65
X5.4Y-3.75
X5.4Y-3.85
X5.5Y-3.65
X5.5Y-3.75
X5.5Y-3.85
X5.0719Y-3.65
X5.0719Y-3.75
X5.0719Y-3.85
X5.0719Y-3.95
X5.0719Y-4.05
X5.1719Y-3.65
X5.1719Y-3.75
X5.1719Y-3.85
X5.1719Y-3.95
X5.1719Y-4.05
T3
X5.7531Y-3.72
X5.7531Y-3.9169
X5.95Y-3.72
X5.95Y-3.9169
T0
M30
